<?xml version="1.0" encoding="UTF-8"?>
<svg id="uuid-2a5bf41c-ae8a-4e19-9efa-0a6f79ff1143" data-name="Codezilla" xmlns="http://www.w3.org/2000/svg" viewBox="0 0 560 113.29">
  <defs>
    <style>
      .uuid-26008492-d0b5-4675-aaaa-533513bed57b {
        fill: #ffd96e;
      }

      .uuid-26008492-d0b5-4675-aaaa-533513bed57b, .uuid-256850e0-51bc-4158-8265-36ded91d3b34, .uuid-985679b1-61b2-477a-8faa-8be6782cd4d3 {
        stroke-width: 0px;
      }

      .uuid-256850e0-51bc-4158-8265-36ded91d3b34 {
        fill: #f29a34;
      }

      .uuid-985679b1-61b2-477a-8faa-8be6782cd4d3 {
        fill: #80d1d5;
      }
    </style>
  </defs>
  <g>
    <path class="uuid-985679b1-61b2-477a-8faa-8be6782cd4d3" d="m20.27,62.6c-1.2,7.92-1.79,13.91-1.79,17.96,0,9.62,2.32,16.74,6.98,21.35,4.65,4.62,12.36,6.93,23.11,6.93,8.36,0,15.28-1.23,20.74-3.68l2.05-23.76c-5.72,2.26-12.04,3.39-18.95,3.39-3.25,0-6.4-.38-9.48-1.13l3.7-23.26h-25.99c-.13.72-.25,1.45-.37,2.19Z"/>
    <path class="uuid-985679b1-61b2-477a-8faa-8be6782cd4d3" d="m47.73,40.96c1.88-.94,5.01-1.41,9.41-1.41s9.11.66,14.15,1.98l7.17-21.64c-1.88-1.04-4.85-1.91-8.9-2.62-4.06-.71-7.66-1.06-10.82-1.06-13.57,0-23.49,3.68-29.77,11.03-5.99,7.02-10.28,18.08-12.88,33.16h25.99l2.19-13.79c.43-2.83,1.58-4.71,3.46-5.66Z"/>
    <path class="uuid-985679b1-61b2-477a-8faa-8be6782cd4d3" d="m121.42,82.25c-.43,2.55-1.37,4.17-2.82,4.88-1.45.71-3.63,1.06-6.53,1.06h-3.71l4.35-27.72s.01-.04.02-.07h-25.45c-2.32,6.72-3.5,14.27-3.5,22.7,0,17.16,8.96,25.74,26.89,25.74,9.13,0,16.73-2.33,22.79-7,6.06-4.67,10.39-10.58,13-17.75,2.57-7.07,3.86-14.96,3.9-23.69h-25.4l-3.53,21.85Z"/>
    <path class="uuid-985679b1-61b2-477a-8faa-8be6782cd4d3" d="m139.21,40.32c-4.4-4.29-11.33-6.43-20.81-6.43-13.06,0-22.86,4.67-29.39,14-2.64,3.77-4.72,7.96-6.29,12.51h25.45c.43-2.5,1.36-4.11,2.8-4.81,1.45-.71,3.63-1.06,6.53-1.06h3.84l-.95,5.87h25.4c0-.12,0-.23,0-.35,0-8.86-2.2-15.44-6.59-19.73Z"/>
    <path class="uuid-985679b1-61b2-477a-8faa-8be6782cd4d3" d="m203.16,14.8l-3.33,21.21h-14.08c-5.12,0-9.65,1.3-13.57,3.89-3.93,2.59-6.96,5.71-9.09,9.33-1.73,2.93-3.31,6.67-4.75,11.17h25.39c.43-2.5,1.36-4.11,2.8-4.81,1.45-.71,3.63-1.06,6.53-1.06h3.84l-.95,5.87h24.33l7.6-47.73-24.71,2.12Z"/>
    <path class="uuid-985679b1-61b2-477a-8faa-8be6782cd4d3" d="m196.84,83.1c-.51,2.17-1.49,3.56-2.94,4.17-1.45.61-3.54.92-6.27.92h-3.71l4.35-27.72s.01-.04.02-.07h-25.39c-.34,1.07-.68,2.17-1.01,3.32-1.71,6.03-2.56,12.44-2.56,19.23,0,17.25,7.08,25.88,21.25,25.88,9.13,0,15.92-2.69,20.36-8.06l4.35,5.94h12.16l7.38-46.31h-24.33l-3.66,22.7Z"/>
    <path class="uuid-985679b1-61b2-477a-8faa-8be6782cd4d3" d="m290.23,37.64c-4.18-2.5-11.61-3.75-22.28-3.75-8.19,0-15.19,2.31-21,6.93-5.98,4.88-10.3,11.41-12.95,19.59h25.77c.43-2.5,1.36-4.11,2.8-4.81,1.45-.71,3.63-1.06,6.53-1.06h4.99l-1.02,5.8s-.01.04-.02.07h22.62c.55-2.92.83-6.29.83-10.11,0-5.94-2.09-10.16-6.27-12.66Z"/>
    <path class="uuid-985679b1-61b2-477a-8faa-8be6782cd4d3" d="m274.81,65.21c-1.45.71-3.59,1.06-6.4,1.06h-4.99l.9-5.8s.01-.04.02-.07h-25.77c-2.12,6.52-3.18,14.08-3.18,22.7,0,17.16,8.96,25.74,26.89,25.74,9.22,0,18.57-1.41,28.04-4.24l.38-20.79c-7.77,2.83-15.58,4.24-23.43,4.24-2.48,0-4.91-.14-7.3-.42l.77-4.95c10.24-.19,18.44-1.32,24.58-3.39,3.58-1.32,6.44-3.11,8.58-5.37,2.13-2.26,3.86-5.28,5.18-9.05.47-1.34.86-2.83,1.16-4.45h-22.62c-.43,2.5-1.36,4.11-2.8,4.81Z"/>
    <polygon class="uuid-985679b1-61b2-477a-8faa-8be6782cd4d3" points="365.13 36.01 309.94 36.01 308.28 57.22 327.49 57.22 327.74 58.07 325.76 60.4 354.23 60.4 362.82 50.15 365.13 36.01"/>
    <polygon class="uuid-985679b1-61b2-477a-8faa-8be6782cd4d3" points="302.98 92.57 300.8 106.71 359.19 106.71 362.52 85.5 338.7 85.5 338.45 84.65 358.78 60.4 330.32 60.4 302.98 92.57"/>
    <polygon class="uuid-985679b1-61b2-477a-8faa-8be6782cd4d3" points="370.84 106.71 395.17 106.71 402.55 60.4 378.17 60.4 370.84 106.71"/>
    <path class="uuid-985679b1-61b2-477a-8faa-8be6782cd4d3" d="m380.62,32.26c1.79,1.09,5.31,1.63,10.56,1.63s9-1.11,11.27-3.32c2.26-2.21,3.39-6.1,3.39-11.67,0-2.73-.88-4.69-2.63-5.87-1.75-1.18-5.1-1.77-10.05-1.77s-8.73,1.18-11.33,3.54c-2.6,2.36-3.91,6.27-3.91,11.74,0,2.74.9,4.64,2.69,5.73Z"/>
    <polygon class="uuid-985679b1-61b2-477a-8faa-8be6782cd4d3" points="376.91 39.55 373.61 60.4 397.99 60.4 401.88 36.01 376.91 39.55"/>
    <path class="uuid-985679b1-61b2-477a-8faa-8be6782cd4d3" d="m411.42,93.42c-.17,1.51-.26,2.92-.26,4.24s.51,2.76,1.54,4.31c1.02,1.56,2.26,2.76,3.71,3.61,3.33,1.79,10.63,2.69,21.89,2.69l4.35-20.79c-1.37-.09-3.29-.42-5.76-.99l4.16-26.09h-24.37l-5.27,33.02Z"/>
    <polygon class="uuid-985679b1-61b2-477a-8faa-8be6782cd4d3" points="419.41 14.8 412.14 60.4 436.51 60.4 444.13 12.68 419.41 14.8"/>
    <polygon class="uuid-985679b1-61b2-477a-8faa-8be6782cd4d3" points="458.98 14.8 451.7 60.4 476.07 60.4 483.69 12.68 458.98 14.8"/>
    <path class="uuid-985679b1-61b2-477a-8faa-8be6782cd4d3" d="m450.99,93.42c-.17,1.51-.26,2.92-.26,4.24s.51,2.76,1.54,4.31c1.02,1.56,2.26,2.76,3.71,3.61,3.33,1.79,10.63,2.69,21.89,2.69l4.35-20.79c-1.37-.09-3.29-.42-5.76-.99l4.16-26.09h-24.37l-5.27,33.02Z"/>
    <path class="uuid-985679b1-61b2-477a-8faa-8be6782cd4d3" d="m531.73,60.4l-3.66,22.7c-.26,1.51-.88,2.66-1.86,3.46-.98.8-1.98,1.27-3.01,1.41s-2.48.21-4.35.21h-3.71l4.35-27.72s.01-.04.02-.07h-25.29c-2.52,6.94-3.79,14.6-3.79,22.98,0,7.54,1.64,13.67,4.93,18.38,3.28,4.71,8.77,7.07,16.45,7.07,4.35,0,7.92-.87,10.69-2.62,2.77-1.74,5.52-4.26,8.26-7.57l5.76,8.06h12.16l7.33-46.31h-24.28Z"/>
    <path class="uuid-985679b1-61b2-477a-8faa-8be6782cd4d3" d="m517.75,55.6c1.45-.71,3.63-1.06,6.53-1.06h3.84l-.95,5.87h24.28l3.3-20.86c-11.44-3.77-22.07-5.66-31.88-5.66-11.61,0-20.68,4.88-27.21,14.64-2.47,3.69-4.47,7.65-6.01,11.88h25.29c.43-2.5,1.36-4.11,2.8-4.81Z"/>
  </g>
  <g>
    <path class="uuid-256850e0-51bc-4158-8265-36ded91d3b34" d="m8.18,56.13c-1.2,7.92-1.79,13.91-1.79,17.96,0,9.62,2.32,16.74,6.98,21.35,4.65,4.62,12.36,6.93,23.11,6.93,8.36,0,15.28-1.23,20.74-3.68l2.05-23.76c-5.72,2.26-12.04,3.39-18.95,3.39-3.25,0-6.4-.38-9.48-1.13l3.7-23.26H8.55c-.13.72-.25,1.45-.37,2.19Z"/>
    <path class="uuid-256850e0-51bc-4158-8265-36ded91d3b34" d="m35.64,34.5c1.88-.94,5.01-1.41,9.41-1.41s9.11.66,14.15,1.98l7.17-21.64c-1.88-1.04-4.85-1.91-8.9-2.62-4.06-.71-7.66-1.06-10.82-1.06-13.57,0-23.49,3.68-29.77,11.03-5.99,7.02-10.28,18.08-12.88,33.16h25.99l2.19-13.79c.43-2.83,1.58-4.71,3.46-5.66Z"/>
    <path class="uuid-256850e0-51bc-4158-8265-36ded91d3b34" d="m109.33,75.79c-.43,2.55-1.37,4.17-2.82,4.88-1.45.71-3.63,1.06-6.53,1.06h-3.71l4.35-27.72s.01-.04.02-.07h-25.45c-2.32,6.72-3.5,14.27-3.5,22.7,0,17.16,8.96,25.74,26.89,25.74,9.13,0,16.73-2.33,22.79-7,6.06-4.67,10.39-10.58,13-17.75,2.57-7.07,3.86-14.96,3.9-23.69h-25.4l-3.53,21.85Z"/>
    <path class="uuid-256850e0-51bc-4158-8265-36ded91d3b34" d="m127.12,33.86c-4.4-4.29-11.33-6.43-20.81-6.43-13.06,0-22.86,4.67-29.39,14-2.64,3.77-4.72,7.96-6.29,12.51h25.45c.43-2.5,1.36-4.11,2.8-4.81,1.45-.71,3.63-1.06,6.53-1.06h3.84l-.95,5.87h25.4c0-.12,0-.23,0-.35,0-8.86-2.2-15.44-6.59-19.73Z"/>
    <path class="uuid-256850e0-51bc-4158-8265-36ded91d3b34" d="m191.07,8.34l-3.33,21.21h-14.08c-5.12,0-9.65,1.3-13.57,3.89-3.93,2.59-6.96,5.71-9.09,9.33-1.73,2.93-3.31,6.67-4.75,11.17h25.39c.43-2.5,1.36-4.11,2.8-4.81,1.45-.71,3.63-1.06,6.53-1.06h3.84l-.95,5.87h24.33l7.6-47.73-24.71,2.12Z"/>
    <path class="uuid-256850e0-51bc-4158-8265-36ded91d3b34" d="m184.75,76.64c-.51,2.17-1.49,3.56-2.94,4.17-1.45.61-3.54.92-6.27.92h-3.71l4.35-27.72s.01-.04.02-.07h-25.39c-.34,1.07-.68,2.17-1.01,3.32-1.71,6.03-2.56,12.44-2.56,19.23,0,17.25,7.08,25.88,21.25,25.88,9.13,0,15.92-2.69,20.36-8.06l4.35,5.94h12.16l7.38-46.31h-24.33l-3.66,22.7Z"/>
    <path class="uuid-256850e0-51bc-4158-8265-36ded91d3b34" d="m278.14,31.18c-4.18-2.5-11.61-3.75-22.28-3.75-8.19,0-15.19,2.31-21,6.93-5.98,4.88-10.3,11.41-12.95,19.59h25.77c.43-2.5,1.36-4.11,2.8-4.81,1.45-.71,3.63-1.06,6.53-1.06h4.99l-1.02,5.8s-.01.04-.02.07h22.62c.55-2.92.83-6.29.83-10.11,0-5.94-2.09-10.16-6.27-12.66Z"/>
    <path class="uuid-256850e0-51bc-4158-8265-36ded91d3b34" d="m262.72,58.75c-1.45.71-3.59,1.06-6.4,1.06h-4.99l.9-5.8s.01-.04.02-.07h-25.77c-2.12,6.52-3.18,14.08-3.18,22.7,0,17.16,8.96,25.74,26.89,25.74,9.22,0,18.57-1.41,28.04-4.24l.38-20.79c-7.77,2.83-15.58,4.24-23.43,4.24-2.48,0-4.91-.14-7.3-.42l.77-4.95c10.24-.19,18.44-1.32,24.58-3.39,3.58-1.32,6.44-3.11,8.58-5.37,2.13-2.26,3.86-5.28,5.18-9.05.47-1.34.86-2.83,1.16-4.45h-22.62c-.43,2.5-1.36,4.11-2.8,4.81Z"/>
    <polygon class="uuid-256850e0-51bc-4158-8265-36ded91d3b34" points="353.04 29.55 297.85 29.55 296.19 50.76 315.4 50.76 315.65 51.61 313.67 53.94 342.14 53.94 350.73 43.69 353.04 29.55"/>
    <polygon class="uuid-256850e0-51bc-4158-8265-36ded91d3b34" points="290.89 86.11 288.71 100.25 347.1 100.25 350.43 79.04 326.61 79.04 326.36 78.19 346.69 53.94 318.23 53.94 290.89 86.11"/>
    <polygon class="uuid-256850e0-51bc-4158-8265-36ded91d3b34" points="358.75 100.25 383.08 100.25 390.46 53.94 366.08 53.94 358.75 100.25"/>
    <path class="uuid-256850e0-51bc-4158-8265-36ded91d3b34" d="m368.53,25.8c1.79,1.09,5.31,1.63,10.56,1.63s9-1.11,11.27-3.32c2.26-2.21,3.39-6.1,3.39-11.67,0-2.73-.88-4.69-2.63-5.87-1.75-1.18-5.1-1.77-10.05-1.77s-8.73,1.18-11.33,3.54c-2.6,2.36-3.91,6.27-3.91,11.74,0,2.74.9,4.64,2.69,5.73Z"/>
    <polygon class="uuid-256850e0-51bc-4158-8265-36ded91d3b34" points="364.82 33.09 361.52 53.94 385.9 53.94 389.79 29.55 364.82 33.09"/>
    <path class="uuid-256850e0-51bc-4158-8265-36ded91d3b34" d="m399.33,86.96c-.17,1.51-.26,2.92-.26,4.24s.51,2.76,1.54,4.31c1.02,1.56,2.26,2.76,3.71,3.61,3.33,1.79,10.63,2.69,21.89,2.69l4.35-20.79c-1.37-.09-3.29-.42-5.76-.99l4.16-26.09h-24.37l-5.27,33.02Z"/>
    <polygon class="uuid-256850e0-51bc-4158-8265-36ded91d3b34" points="407.32 8.34 400.05 53.94 424.42 53.94 432.04 6.22 407.32 8.34"/>
    <polygon class="uuid-256850e0-51bc-4158-8265-36ded91d3b34" points="446.89 8.34 439.61 53.94 463.98 53.94 471.6 6.22 446.89 8.34"/>
    <path class="uuid-256850e0-51bc-4158-8265-36ded91d3b34" d="m438.9,86.96c-.17,1.51-.26,2.92-.26,4.24s.51,2.76,1.54,4.31c1.02,1.56,2.26,2.76,3.71,3.61,3.33,1.79,10.63,2.69,21.89,2.69l4.35-20.79c-1.37-.09-3.29-.42-5.76-.99l4.16-26.09h-24.37l-5.27,33.02Z"/>
    <path class="uuid-256850e0-51bc-4158-8265-36ded91d3b34" d="m519.64,53.94l-3.66,22.7c-.26,1.51-.88,2.66-1.86,3.46-.98.8-1.98,1.27-3.01,1.41s-2.48.21-4.35.21h-3.71l4.35-27.72s.01-.04.02-.07h-25.29c-2.52,6.94-3.79,14.6-3.79,22.98,0,7.54,1.64,13.67,4.93,18.38,3.28,4.71,8.77,7.07,16.45,7.07,4.35,0,7.92-.87,10.69-2.62,2.77-1.74,5.52-4.26,8.26-7.57l5.76,8.06h12.16l7.33-46.31h-24.28Z"/>
    <path class="uuid-256850e0-51bc-4158-8265-36ded91d3b34" d="m505.65,49.13c1.45-.71,3.63-1.06,6.53-1.06h3.84l-.95,5.87h24.28l3.3-20.86c-11.44-3.77-22.07-5.66-31.88-5.66-11.61,0-20.68,4.88-27.21,14.64-2.47,3.69-4.47,7.65-6.01,11.88h25.29c.43-2.5,1.36-4.11,2.8-4.81Z"/>
  </g>
  <g>
    <path class="uuid-26008492-d0b5-4675-aaaa-533513bed57b" d="m13.43,59.57c-1.2,7.92-1.79,13.91-1.79,17.96,0,9.62,2.32,16.74,6.98,21.35,4.65,4.62,12.36,6.93,23.11,6.93,8.36,0,15.28-1.23,20.74-3.68l2.05-23.76c-5.72,2.26-12.04,3.39-18.95,3.39-3.25,0-6.4-.38-9.48-1.13l3.7-23.26H13.79c-.13.72-.25,1.45-.37,2.19Z"/>
    <path class="uuid-26008492-d0b5-4675-aaaa-533513bed57b" d="m40.88,37.93c1.88-.94,5.01-1.41,9.41-1.41s9.11.66,14.15,1.98l7.17-21.64c-1.88-1.04-4.85-1.91-8.9-2.62-4.06-.71-7.66-1.06-10.82-1.06-13.57,0-23.49,3.68-29.77,11.03-5.99,7.02-10.28,18.08-12.88,33.16h25.99l2.19-13.79c.43-2.83,1.58-4.71,3.46-5.66Z"/>
    <path class="uuid-26008492-d0b5-4675-aaaa-533513bed57b" d="m114.58,78.22c-.43,2.55-1.37,4.17-2.82,4.88-1.45.71-3.63,1.06-6.53,1.06h-3.71l4.35-27.72s.01-.04.02-.07h-25.45c-2.32,6.72-3.5,14.27-3.5,22.7,0,17.16,8.96,25.74,26.89,25.74,9.13,0,16.73-2.33,22.79-7,6.06-4.67,10.39-10.58,13-17.75,2.57-7.07,3.86-14.96,3.9-23.69h-25.4l-3.53,21.85Z"/>
    <path class="uuid-26008492-d0b5-4675-aaaa-533513bed57b" d="m133.71,36.78c-4.4-4.29-11.33-6.43-20.81-6.43-13.06,0-22.86,4.67-29.39,14-2.64,3.77-4.72,7.96-6.29,12.51h25.45c.43-2.5,1.36-4.11,2.8-4.81,1.45-.71,3.63-1.06,6.53-1.06h3.84l-.95,5.87h25.4c0-.12,0-.23,0-.35,0-8.86-2.2-15.44-6.59-19.73Z"/>
    <path class="uuid-26008492-d0b5-4675-aaaa-533513bed57b" d="m197.66,11.26l-3.33,21.21h-14.08c-5.12,0-9.65,1.3-13.57,3.89-3.93,2.59-6.96,5.71-9.09,9.33-1.73,2.93-3.31,6.67-4.75,11.17h25.39c.43-2.5,1.36-4.11,2.8-4.81,1.45-.71,3.63-1.06,6.53-1.06h3.84l-.95,5.87h24.33l7.6-47.73-24.71,2.12Z"/>
    <path class="uuid-26008492-d0b5-4675-aaaa-533513bed57b" d="m189.99,79.07c-.51,2.17-1.49,3.56-2.94,4.17-1.45.61-3.54.92-6.27.92h-3.71l4.35-27.72s.01-.04.02-.07h-25.39c-.34,1.07-.68,2.17-1.01,3.32-1.71,6.03-2.56,12.44-2.56,19.23,0,17.25,7.08,25.88,21.25,25.88,9.13,0,15.92-2.69,20.36-8.06l4.35,5.94h12.16l7.38-46.31h-24.33l-3.66,22.7Z"/>
    <path class="uuid-26008492-d0b5-4675-aaaa-533513bed57b" d="m284.73,34.09c-4.18-2.5-11.61-3.75-22.28-3.75-8.19,0-15.19,2.31-21,6.93-5.98,4.88-10.3,11.41-12.95,19.59h25.77c.43-2.5,1.36-4.11,2.8-4.81,1.45-.71,3.63-1.06,6.53-1.06h4.99l-1.02,5.8s-.01.04-.02.07h22.62c.55-2.92.83-6.29.83-10.11,0-5.94-2.09-10.16-6.27-12.66Z"/>
    <path class="uuid-26008492-d0b5-4675-aaaa-533513bed57b" d="m269.31,61.67c-1.45.71-3.59,1.06-6.4,1.06h-4.99l.9-5.8s.01-.04.02-.07h-25.77c-2.12,6.52-3.18,14.08-3.18,22.7,0,17.16,8.96,25.74,26.89,25.74,9.22,0,18.57-1.41,28.04-4.24l.38-20.79c-7.77,2.83-15.58,4.24-23.43,4.24-2.48,0-4.91-.14-7.3-.42l.77-4.95c10.24-.19,18.44-1.32,24.58-3.39,3.58-1.32,6.44-3.11,8.58-5.37,2.13-2.26,3.86-5.28,5.18-9.05.47-1.34.86-2.83,1.16-4.45h-22.62c-.43,2.5-1.36,4.11-2.8,4.81Z"/>
    <polygon class="uuid-26008492-d0b5-4675-aaaa-533513bed57b" points="359.63 32.47 304.44 32.47 302.78 53.68 321.98 53.68 322.24 54.53 320.25 56.86 348.72 56.86 357.32 46.61 359.63 32.47"/>
    <polygon class="uuid-26008492-d0b5-4675-aaaa-533513bed57b" points="297.47 89.03 295.3 103.17 353.68 103.17 357.01 81.96 333.2 81.96 332.94 81.11 353.28 56.86 324.81 56.86 297.47 89.03"/>
    <polygon class="uuid-26008492-d0b5-4675-aaaa-533513bed57b" points="365.34 103.17 389.66 103.17 397.04 56.86 372.66 56.86 365.34 103.17"/>
    <path class="uuid-26008492-d0b5-4675-aaaa-533513bed57b" d="m375.12,28.72c1.79,1.09,5.31,1.63,10.56,1.63s9-1.11,11.27-3.32c2.26-2.21,3.39-6.1,3.39-11.67,0-2.73-.88-4.69-2.63-5.87-1.75-1.18-5.1-1.77-10.05-1.77s-8.73,1.18-11.33,3.54c-2.6,2.36-3.91,6.27-3.91,11.74,0,2.74.9,4.64,2.69,5.73Z"/>
    <polygon class="uuid-26008492-d0b5-4675-aaaa-533513bed57b" points="371.41 36 368.1 56.86 392.49 56.86 396.37 32.47 371.41 36"/>
    <path class="uuid-26008492-d0b5-4675-aaaa-533513bed57b" d="m405.92,89.88c-.17,1.51-.26,2.92-.26,4.24s.51,2.76,1.54,4.31c1.02,1.56,2.26,2.76,3.71,3.61,3.33,1.79,10.63,2.69,21.89,2.69l4.35-20.79c-1.37-.09-3.29-.42-5.76-.99l4.16-26.09h-24.37l-5.27,33.02Z"/>
    <polygon class="uuid-26008492-d0b5-4675-aaaa-533513bed57b" points="413.91 11.26 406.63 56.86 431.01 56.86 438.62 9.14 413.91 11.26"/>
    <polygon class="uuid-26008492-d0b5-4675-aaaa-533513bed57b" points="453.47 11.26 446.2 56.86 470.57 56.86 478.19 9.14 453.47 11.26"/>
    <path class="uuid-26008492-d0b5-4675-aaaa-533513bed57b" d="m445.48,89.88c-.17,1.51-.26,2.92-.26,4.24s.51,2.76,1.54,4.31c1.02,1.56,2.26,2.76,3.71,3.61,3.33,1.79,10.63,2.69,21.89,2.69l4.35-20.79c-1.37-.09-3.29-.42-5.76-.99l4.16-26.09h-24.37l-5.27,33.02Z"/>
    <path class="uuid-26008492-d0b5-4675-aaaa-533513bed57b" d="m526.22,56.86l-3.66,22.7c-.26,1.51-.88,2.66-1.86,3.46-.98.8-1.98,1.27-3.01,1.41s-2.48.21-4.35.21h-3.71l4.35-27.72s.01-.04.02-.07h-25.29c-2.52,6.94-3.79,14.6-3.79,22.98,0,7.54,1.64,13.67,4.93,18.38,3.28,4.71,8.77,7.07,16.45,7.07,4.35,0,7.92-.87,10.69-2.62,2.77-1.74,5.52-4.26,8.26-7.57l5.76,8.06h12.16l7.33-46.31h-24.28Z"/>
    <path class="uuid-26008492-d0b5-4675-aaaa-533513bed57b" d="m512.24,52.05c1.45-.71,3.63-1.06,6.53-1.06h3.84l-.95,5.87h24.28l3.3-20.86c-11.44-3.77-22.07-5.66-31.88-5.66-11.61,0-20.68,4.88-27.21,14.64-2.47,3.69-4.47,7.65-6.01,11.88h25.29c.43-2.5,1.36-4.11,2.8-4.81Z"/>
  </g>
</svg>